<?xml version="1.0" encoding="UTF-8" standalone="no"?>
<!DOCTYPE svg PUBLIC "-//W3C//DTD SVG 1.1//EN" "http://www.w3.org/Graphics/SVG/1.1/DTD/svg11.dtd">
<svg width="100%" height="100%" viewBox="0 0 685 152" version="1.1" xmlns="http://www.w3.org/2000/svg" xmlns:xlink="http://www.w3.org/1999/xlink" xml:space="preserve" xmlns:serif="http://www.serif.com/" style="fill-rule:evenodd;clip-rule:evenodd;stroke-linejoin:round;stroke-miterlimit:2;fill:white;">
    <g transform="matrix(1,0,0,1,-34.6,-22.5)">
        <g id="Ebene_1">
            <g>
                <g>
                    <g>
                        <path d="M83.3,98.4C83.3,96.3 82.6,94.7 81.3,93.5C80,92.3 78.1,91.7 75.6,91.7L42.3,91.7C39.8,91.7 37.9,92.3 36.6,93.5C35.3,94.7 34.6,96.3 34.6,98.4C34.6,100.5 35.3,102.1 36.6,103.2C37.9,104.3 39.8,104.9 42.3,104.9L75.6,104.9C78.1,104.9 80,104.3 81.3,103.2C82.7,102.1 83.3,100.5 83.3,98.4" style="fill-rule:nonzero;"/>
                    </g>
                    <g>
                        <path d="M186.3,98.4C186.3,96.3 185.6,94.7 184.3,93.5C183,92.3 181.1,91.7 178.6,91.7L145.3,91.7C142.8,91.7 140.9,92.3 139.6,93.5C138.3,94.7 137.6,96.3 137.6,98.4C137.6,100.5 138.3,102.1 139.6,103.2C140.9,104.3 142.8,104.9 145.3,104.9L178.6,104.9C181.1,104.9 183,104.3 184.3,103.2C185.7,102.1 186.3,100.5 186.3,98.4" style="fill-rule:nonzero;"/>
                    </g>
                    <g>
                        <path d="M110.6,125.5C108.5,125.5 106.9,126.2 105.7,127.5C104.5,128.8 103.9,130.7 103.9,133.2L103.9,166.5C103.9,169 104.5,170.9 105.7,172.2C106.9,173.5 108.5,174.2 110.6,174.2C112.7,174.2 114.3,173.5 115.4,172.2C116.5,170.9 117.1,169 117.1,166.5L117.1,133.2C117.1,130.7 116.5,128.8 115.4,127.5C114.2,126.2 112.6,125.5 110.6,125.5" style="fill-rule:nonzero;"/>
                    </g>
                    <g>
                        <path d="M110.6,22.5C108.5,22.5 106.9,23.2 105.7,24.5C104.5,25.8 103.9,27.7 103.9,30.2L103.9,63.5C103.9,66 104.5,67.9 105.7,69.2C106.9,70.5 108.5,71.2 110.6,71.2C112.7,71.2 114.3,70.5 115.4,69.2C116.5,67.9 117.1,66 117.1,63.5L117.1,30.2C117.1,27.7 116.5,25.8 115.4,24.5C114.2,23.2 112.6,22.5 110.6,22.5" style="fill-rule:nonzero;"/>
                    </g>
                    <g>
                        <path d="M91.3,117.6C89.8,116.1 88.2,115.5 86.5,115.5C84.7,115.6 83,116.5 81.2,118.3L57.7,141.8C55.9,143.6 55,145.3 54.9,147.1C54.8,148.9 55.5,150.5 57,151.9C58.5,153.4 60,154 61.8,153.9C63.5,153.8 65.3,152.8 67.1,151.1L74.6,143.5L83,135.1L90.6,127.6C92.4,125.8 93.3,124.1 93.4,122.3C93.4,120.7 92.8,119.1 91.3,117.6" style="fill-rule:nonzero;"/>
                    </g>
                    <g>
                        <path d="M164.2,44.8C162.7,43.3 161.1,42.7 159.4,42.7C157.6,42.8 155.9,43.7 154.1,45.5L146.5,53L138.1,61.4L130.5,68.9C128.7,70.7 127.8,72.4 127.7,74.2C127.6,76 128.3,77.6 129.8,79C131.3,80.5 132.8,81.1 134.6,81C136.3,80.9 138.1,79.9 139.9,78.2L163.5,54.6C165.3,52.8 166.2,51.1 166.3,49.3C166.3,47.8 165.6,46.2 164.2,44.8" style="fill-rule:nonzero;"/>
                    </g>
                    <g>
                        <path d="M129.8,117.5C128.3,119 127.7,120.6 127.7,122.3C127.8,124.1 128.7,125.8 130.5,127.6L138,135.2L146.4,143.6L153.9,151.2C155.7,153 157.4,153.9 159.2,154C161,154.1 162.6,153.4 164,151.9C165.5,150.4 166.1,148.9 166,147.1C165.9,145.4 164.9,143.6 163.2,141.8L155.6,134.3L147.2,125.9L139.6,118.4C137.8,116.6 136.1,115.7 134.3,115.6C132.8,115.4 131.2,116.1 129.8,117.5" style="fill-rule:nonzero;"/>
                    </g>
                    <g>
                        <path d="M56.9,44.7C55.4,46.2 54.8,47.8 54.8,49.5C54.9,51.3 55.8,53 57.6,54.8L73.6,70.8L81.1,78.4C82.9,80.2 84.6,81.1 86.4,81.2C88.2,81.3 89.8,80.6 91.2,79.1C92.7,77.6 93.3,76.1 93.2,74.3C93.1,72.6 92.1,70.8 90.4,69L74.4,53L67,45.5C65.2,43.7 63.5,42.8 61.7,42.7C60,42.6 58.4,43.2 56.9,44.7" style="fill-rule:nonzero;"/>
                    </g>
                    <g>
                        <path d="M231.3,159.5L297,159.5C299.5,159.5 301.4,158.9 302.7,157.8C304,156.7 304.7,155.1 304.7,153C304.7,150.9 304,149.3 302.7,148.1C301.4,146.9 299.5,146.3 297,146.3L237.9,146.3L237.9,105L292.2,105C294.7,105 296.6,104.4 297.9,103.3C299.2,102.2 299.9,100.6 299.9,98.5C299.9,96.4 299.2,94.8 297.9,93.6C296.6,92.4 294.7,91.8 292.2,91.8L237.9,91.8L237.9,52.6L294.9,52.6C297.4,52.6 299.3,52 300.6,50.9C301.9,49.8 302.6,48.2 302.6,46.1C302.6,44 301.9,42.4 300.6,41.3C299.3,40.2 297.4,39.6 294.9,39.6L231.2,39.6C228.3,39.6 226.1,40.4 224.6,41.9C223.1,43.4 222.3,45.6 222.3,48.5L222.3,150.6C222.3,153.5 223.1,155.7 224.6,157.2C226.2,158.7 228.4,159.5 231.3,159.5" style="fill-rule:nonzero;"/>
                    </g>
                    <g>
                        <path d="M325,160.8C327.4,160.8 329.3,160 330.7,158.5C332.1,157 332.8,154.8 332.8,151.9L332.8,55.4L391,151.5L391.3,152C393.1,155.1 395.1,157.3 397.2,158.8C399.3,160.2 402,160.9 405.2,160.9C408.7,160.9 411.6,159.7 413.9,157.4C416.1,155.1 417.2,152 417.2,148.2L417.2,47.2C417.2,44.3 416.5,42.1 415.1,40.6C413.7,39.1 411.8,38.3 409.4,38.3C407,38.3 405.1,39.1 403.7,40.6C402.3,42.1 401.6,44.3 401.6,47.2L401.6,141.2L345.8,48.6C345.7,48.5 345.6,48.4 345.5,48.3C345.4,48.2 345.4,48.1 345.4,48C343.3,44.7 341.2,42.3 339,40.7C336.8,39.2 333.9,38.4 330.3,38.4C326.5,38.4 323.4,39.7 321,42.3C318.5,44.9 317.3,48.2 317.3,52.1L317.3,152.1C317.3,155 318,157.2 319.4,158.7C320.7,160 322.6,160.8 325,160.8" style="fill-rule:nonzero;"/>
                    </g>
                    <g>
                        <path d="M476.5,160.8C478.9,160.8 480.8,160 482.2,158.5C483.6,157 484.3,154.8 484.3,151.9L484.3,52.6L517.9,52.6C520.4,52.6 522.3,52 523.6,50.9C524.9,49.8 525.6,48.2 525.6,46.1C525.6,44 524.9,42.4 523.6,41.3C522.3,40.2 520.4,39.6 517.9,39.6L435,39.6C432.5,39.6 430.6,40.2 429.3,41.3C428,42.4 427.3,44 427.3,46.1C427.3,48.2 428,49.8 429.3,50.9C430.6,52 432.5,52.6 435,52.6L468.7,52.6L468.7,151.9C468.7,154.8 469.4,157 470.8,158.5C472.2,160 474.1,160.8 476.5,160.8" style="fill-rule:nonzero;"/>
                    </g>
                    <g>
                        <path d="M544.2,159.5L610,159.5C612.5,159.5 614.4,158.9 615.7,157.8C617,156.7 617.7,155.1 617.7,153C617.7,150.9 617,149.3 615.7,148.1C614.4,146.9 612.5,146.3 610,146.3L550.9,146.3L550.9,105L605.2,105C607.7,105 609.6,104.4 610.9,103.3C612.2,102.2 612.9,100.6 612.9,98.5C612.9,96.4 612.2,94.8 610.9,93.6C609.6,92.4 607.7,91.8 605.2,91.8L550.9,91.8L550.9,52.6L607.9,52.6C610.4,52.6 612.3,52 613.6,50.9C614.9,49.8 615.6,48.2 615.6,46.1C615.6,44 614.9,42.4 613.6,41.3C612.3,40.2 610.4,39.6 607.9,39.6L544.2,39.6C541.3,39.6 539.1,40.4 537.6,41.9C536.1,43.4 535.3,45.6 535.3,48.5L535.3,150.6C535.3,153.5 536.1,155.7 537.6,157.2C539.2,158.7 541.4,159.5 544.2,159.5" style="fill-rule:nonzero;"/>
                    </g>
                    <g>
                        <path d="M702.9,71.5C702.9,76 701.9,79 699.9,82.2C697.9,85.3 695,87.7 691.2,89.3C687.4,90.9 682.8,91.7 677.4,91.7L645.9,91.7L645.9,52.5L677.4,52.5C685.6,52.5 691.9,54.2 696.3,57.6C700.7,61.1 702.9,64.7 702.9,71.5M718.9,69.6C718.9,59.7 715.5,53.3 708.8,47.8C702.1,42.3 692.9,39.5 681.4,39.5L639.3,39.5C636.4,39.5 634.2,40.3 632.7,41.8C631.2,43.3 630.4,45.5 630.4,48.4L630.4,152C630.4,154.9 631.1,157.1 632.5,158.6C633.9,160.1 635.8,160.9 638.2,160.9C640.6,160.9 642.5,160.1 643.9,158.6C645.3,157.1 646,154.9 646,152L646,104.9L675.5,104.9C684.6,104.9 691.1,106.7 694.9,110.3C698.7,113.9 700.6,122.6 700.6,132L700.6,152C700.6,154.9 701.3,157.1 702.7,158.6C704.1,160.1 706,160.9 708.4,160.9C710.8,160.9 712.7,160.1 714.1,158.6C715.5,157.1 716.2,154.9 716.2,152L716.2,125.4C716.2,117.8 714.4,111.5 710.9,106.6C707.4,101.7 702.6,98.9 696.7,97.9C702.6,96.1 707.8,92.5 712.3,87.3C716.6,82.1 718.9,76.7 718.9,69.6" style="fill-rule:nonzero;"/>
                    </g>
                </g>
            </g>
        </g>
    </g>
</svg>
