<svg width="310" height="87" viewBox="0 0 310 87" fill="none" xmlns="http://www.w3.org/2000/svg">
<path d="M0 83.8975V2.46973C0 1.82915 0.249765 1.25763 0.753703 0.755157C1.2547 0.252689 1.82769 0 2.46974 0H47.2776C47.9197 0 48.4824 0.252689 48.9643 0.755157C49.4462 1.25763 49.6871 1.82915 49.6871 2.46973V14.8169C49.6871 15.4604 49.4462 16.032 48.9643 16.5344C48.4824 17.0369 47.9197 17.2867 47.2776 17.2867H18.49C17.6863 17.2867 17.2852 17.7083 17.2852 18.5517V33.3054C17.2852 34.112 17.6863 34.5322 18.49 34.5719H46.2536C46.8956 34.5719 47.4686 34.8128 47.9711 35.2947C48.4721 35.7766 48.7233 36.3584 48.7233 37.0416V49.3888C48.7233 50.0294 48.4824 50.6024 48.0005 51.1034C47.5186 51.6059 46.9368 51.8571 46.2536 51.8571H18.49C17.6863 51.8571 17.2852 52.2582 17.2852 53.0619V67.8773C17.2852 68.681 17.6863 69.0821 18.49 69.0821H47.761C48.4015 69.0821 48.9731 69.3333 49.477 69.8358C49.978 70.3383 50.2292 70.9098 50.2292 71.5504V83.8975C50.2292 84.5396 49.978 85.1126 49.477 85.615C48.9731 86.1175 48.4015 86.3673 47.761 86.3673H2.46974C1.82769 86.3673 1.2547 86.1175 0.753703 85.615C0.249765 85.1126 0 84.5396 0 83.8975Z" fill="#FFFFFF"/>
<path d="M63.117 83.8975V2.46973C63.117 1.82915 63.3667 1.25763 63.8707 0.755157C64.3717 0.252689 64.9447 0 65.5867 0H80.2832C81.2058 0 81.9081 0.232116 82.39 0.694916C82.8719 1.15625 83.1937 1.66755 83.3538 2.23026L100.278 49.1464C100.436 49.549 100.66 49.7091 100.94 49.6283C101.221 49.549 101.362 49.2889 101.362 48.8452V2.46973C101.362 1.82915 101.612 1.25763 102.114 0.755157C102.617 0.252689 103.188 0 103.83 0H116.177C116.819 0 117.391 0.252689 117.893 0.755157C118.396 1.25763 118.647 1.82915 118.647 2.46973V83.8975C118.647 84.5396 118.396 85.1126 117.893 85.615C117.391 86.1175 116.819 86.3673 116.177 86.3673H101.601C100.519 86.3673 99.7355 86.1351 99.2536 85.6753C98.7717 85.2139 98.4499 84.7394 98.2898 84.2589L81.4865 40.9556C81.3263 40.5545 81.1045 40.3944 80.8239 40.4737C80.5432 40.5545 80.4037 40.7954 80.4037 41.1965V83.8975C80.4037 84.5396 80.1524 85.1126 79.65 85.615C79.1475 86.1175 78.5745 86.3673 77.9324 86.3673H65.5867C64.9447 86.3673 64.3717 86.1175 63.8707 85.615C63.3667 85.1126 63.117 84.5396 63.117 83.8975Z" fill="#FFFFFF"/>
<path d="M126.898 14.8169V2.4697C126.898 1.82912 127.148 1.25763 127.65 0.755157C128.151 0.252689 128.723 0.00143433 129.365 0.00143433H179.901C180.543 0.00143433 181.115 0.252689 181.616 0.755157C182.115 1.25763 182.368 1.82912 182.368 2.4697V14.8169C182.368 15.4604 182.117 16.032 181.617 16.5344C181.116 17.0369 180.546 17.2867 179.906 17.2867H164.538C163.736 17.2867 163.315 17.7083 163.276 18.5516V83.8975C163.276 84.541 163.033 85.1126 162.55 85.615C162.067 86.1175 161.483 86.3672 160.799 86.3672H148.409C147.762 86.3672 147.198 86.1175 146.715 85.615C146.231 85.1126 145.991 84.541 145.991 83.8975V18.5516C145.991 17.7494 145.57 17.3278 144.73 17.2867H129.361C128.72 17.2867 128.15 17.0457 127.649 16.5638C127.148 16.0834 126.898 15.5001 126.898 14.8169Z" fill="#FFFFFF"/>
<path d="M190.557 83.8975V2.46973C190.557 1.82915 190.807 1.25763 191.311 0.755157C191.812 0.252689 192.385 0 193.027 0H237.835C238.479 0 239.041 0.252689 239.522 0.755157C240.005 1.25763 240.245 1.82915 240.245 2.46973V14.8169C240.245 15.4604 240.005 16.032 239.522 16.5344C239.041 17.0369 238.479 17.2867 237.835 17.2867H209.047C208.244 17.2867 207.843 17.7083 207.843 18.5517V33.3054C207.843 34.112 208.244 34.5322 209.047 34.5719H236.812C237.453 34.5719 238.026 34.8128 238.529 35.2947C239.031 35.7766 239.282 36.3584 239.282 37.0416V49.3888C239.282 50.0294 239.041 50.6024 238.558 51.1034C238.076 51.6059 237.494 51.8571 236.812 51.8571H209.047C208.244 51.8571 207.843 52.2582 207.843 53.0619V67.8773C207.843 68.681 208.244 69.0821 209.047 69.0821H238.318C238.96 69.0821 239.531 69.3333 240.034 69.8358C240.535 70.3383 240.787 70.9098 240.787 71.5504V83.8975C240.787 84.5396 240.535 85.1126 240.034 85.615C239.531 86.1175 238.96 86.3673 238.318 86.3673H193.027C192.385 86.3673 191.812 86.1175 191.311 85.615C190.807 85.1126 190.557 84.5396 190.557 83.8975Z" fill="#FFFFFF"/>
<path d="M270.961 33.306C270.961 34.1111 271.361 34.5328 272.165 34.5725H283.306C285.675 34.5725 287.704 33.7277 289.389 32.0425C291.075 30.3558 291.919 28.3078 291.919 25.8983C291.919 23.5299 291.075 21.5024 289.389 19.8158C287.704 18.1291 285.675 17.2873 283.306 17.2873H272.165C271.361 17.2873 270.961 17.7075 270.961 18.5522V33.306ZM253.675 83.8981V2.47031C253.675 1.82973 253.924 1.25821 254.428 0.755737C254.929 0.253269 255.502 0.000579834 256.144 0.000579834H283.306C286.84 0.000579834 290.183 0.685221 293.336 2.04865C296.486 3.41501 299.238 5.27061 301.587 7.61987C303.935 9.96913 305.792 12.7195 307.157 15.8695C308.522 19.0239 309.205 22.3663 309.205 25.8983C309.205 30.6761 308.17 34.7737 306.103 38.1852C304.035 41.5982 300.793 44.7893 296.377 47.7615C295.451 48.405 294.99 49.0162 294.99 49.5995C294.99 50.1799 295.191 50.935 295.592 51.8577L308.843 82.6934C309.244 83.6175 309.253 84.4594 308.874 85.2234C308.492 85.9844 307.699 86.3664 306.495 86.3664H293.787C292.783 86.3664 292.019 86.1357 291.499 85.6759C290.975 85.2145 290.534 84.6195 290.173 83.8981L277.586 53.4224C277.424 53.1036 277.183 52.7598 276.863 52.3998C276.541 52.0384 276.059 51.8577 275.417 51.8577H272.165C271.361 51.8577 270.961 52.2573 270.961 53.061V83.8981C270.961 84.5402 270.71 85.1132 270.208 85.6156C269.707 86.1166 269.132 86.3664 268.49 86.3664H256.144C255.502 86.3664 254.929 86.1166 254.428 85.6156C253.924 85.1132 253.675 84.5402 253.675 83.8981Z" fill="#FFFFFF"/>
</svg>
